<svg width="37" height="43" viewBox="0 0 37 43" fill="none" xmlns="http://www.w3.org/2000/svg">
<path d="M9.3125 18.625C10.9531 18.625 12.4844 18.2148 13.9062 17.3945C15.3281 16.5742 16.4492 15.4531 17.2695 14.0312C18.0898 12.6094 18.5 11.0781 18.5 9.4375C18.5 7.79688 18.0898 6.26562 17.2695 4.84375C16.4492 3.42188 15.3281 2.30078 13.9062 1.48047C12.4844 0.660156 10.9531 0.25 9.3125 0.25C7.67188 0.25 6.14062 0.660156 4.71875 1.48047C3.29688 2.30078 2.17578 3.42188 1.35547 4.84375C0.535156 6.26562 0.125 7.79688 0.125 9.4375C0.125 11.0781 0.535156 12.6094 1.35547 14.0312C2.17578 15.4531 3.29688 16.5742 4.71875 17.3945C6.14062 18.2148 7.67188 18.625 9.3125 18.625ZM9.3125 5.5C10.4062 5.5 11.3359 5.88281 12.1016 6.64844C12.8672 7.41406 13.25 8.34375 13.25 9.4375C13.25 10.5312 12.8672 11.4609 12.1016 12.2266C11.3359 12.9922 10.4062 13.375 9.3125 13.375C8.21875 13.375 7.28906 12.9922 6.52344 12.2266C5.75781 11.4609 5.375 10.5312 5.375 9.4375C5.375 8.34375 5.75781 7.41406 6.52344 6.64844C7.28906 5.88281 8.21875 5.5 9.3125 5.5ZM27.6875 23.875C26.0469 23.875 24.5156 24.2852 23.0938 25.1055C21.6719 25.9258 20.5508 27.0469 19.7305 28.4688C18.9102 29.8906 18.5 31.4219 18.5 33.0625C18.5 34.7031 18.9102 36.2344 19.7305 37.6562C20.5508 39.0781 21.6719 40.1992 23.0938 41.0195C24.5156 41.8398 26.0469 42.25 27.6875 42.25C29.3281 42.25 30.8594 41.8398 32.2812 41.0195C33.7031 40.1992 34.8242 39.0781 35.6445 37.6562C36.4648 36.2344 36.875 34.7031 36.875 33.0625C36.875 31.4219 36.4648 29.8906 35.6445 28.4688C34.8242 27.0469 33.7031 25.9258 32.2812 25.1055C30.8594 24.2852 29.3281 23.875 27.6875 23.875ZM27.6875 37C26.5938 37 25.6641 36.6172 24.8984 35.8516C24.1328 35.0859 23.75 34.1562 23.75 33.0625C23.75 31.9688 24.1328 31.0391 24.8984 30.2734C25.6641 29.5078 26.5938 29.125 27.6875 29.125C28.7812 29.125 29.7109 29.5078 30.4766 30.2734C31.2422 31.0391 31.625 31.9688 31.625 33.0625C31.625 34.1562 31.2422 35.0859 30.4766 35.8516C29.7109 36.6172 28.7812 37 27.6875 37ZM32.2812 0.25H34.9062C35.6719 0.25 36.2461 0.605469 36.6289 1.31641C37.0117 2.02734 36.9844 2.71094 36.5469 3.36719L6.44141 41.4297C6.05859 41.9766 5.53906 42.25 4.88281 42.25H2.09375C1.32812 42.25 0.753906 41.8945 0.371094 41.1836C-0.0117187 40.4727 0.0429688 39.7891 0.535156 39.1328L30.7227 1.07031C31.1055 0.523437 31.625 0.25 32.2812 0.25Z" fill="#0086D3"/>
</svg>
