<svg width="40" height="43" viewBox="0 0 40 43" fill="none" xmlns="http://www.w3.org/2000/svg">
<path d="M42.6875 10.75C42.6875 16.3828 41.6484 21.5508 39.5703 26.2539C37.7656 30.1914 35.3594 33.6367 32.3516 36.5898C29.8359 39.0508 27.2109 40.8281 24.4766 41.9219C23.4922 42.3594 22.5078 42.3594 21.5234 41.9219C18.4062 40.6641 15.5352 38.6406 12.9102 35.8516C10.0117 32.8438 7.74219 29.3164 6.10156 25.2695C4.24219 20.7305 3.3125 15.8906 3.3125 10.75C3.3125 9.92969 3.53125 9.19141 3.96875 8.53516C4.40625 7.87891 5.00781 7.41406 5.77344 7.14062L21.5234 0.578125C22.5078 0.140625 23.4922 0.140625 24.4766 0.578125L40.2266 7.14062C40.9922 7.41406 41.5938 7.87891 42.0312 8.53516C42.4688 9.19141 42.6875 9.92969 42.6875 10.75ZM23 36.8359C27.1016 34.8125 30.4375 31.6953 33.0078 27.4844C35.8516 22.8359 37.3281 17.5586 37.4375 11.6523L23 5.58203V36.8359Z" transform="translate(-3)" fill="#0086D3"/>
</svg>
