<svg width="42" height="38" viewBox="0 0 42 38" fill="none" xmlns="http://www.w3.org/2000/svg">
<path d="M41.2617 17.8867L37.4883 14.1133C36.9961 13.6211 36.3945 13.375 35.6836 13.375H31.5V6.8125C31.5 5.71875 31.1172 4.78906 30.3516 4.02344C29.5859 3.25781 28.6562 2.875 27.5625 2.875H14.4375C13.3438 2.875 12.4141 3.25781 11.6484 4.02344C10.8828 4.78906 10.5 5.71875 10.5 6.8125V13.375H6.31641C5.60547 13.375 5.00391 13.6211 4.51172 14.1133L0.738281 17.8867C0.246094 18.3789 0 18.9805 0 19.6914V26.5H10.5V25.1875C10.5 24.8047 10.6094 24.5039 10.8281 24.2852C11.1016 24.0117 11.4297 23.875 11.8125 23.875H14.4375C14.8203 23.875 15.1211 24.0117 15.3398 24.2852C15.6133 24.5039 15.75 24.8047 15.75 25.1875V26.5H26.25V25.1875C26.25 24.8047 26.3594 24.5039 26.5781 24.2852C26.8516 24.0117 27.1797 23.875 27.5625 23.875H30.1875C30.5703 23.875 30.8711 24.0117 31.0898 24.2852C31.3633 24.5039 31.5 24.8047 31.5 25.1875V26.5H42V19.6914C42 18.9805 41.7539 18.3789 41.2617 17.8867ZM26.25 13.375H15.75V8.125H26.25V13.375ZM31.5 30.4375C31.5 30.8203 31.3633 31.1484 31.0898 31.4219C30.8711 31.6406 30.5703 31.75 30.1875 31.75H27.5625C27.1797 31.75 26.8516 31.6406 26.5781 31.4219C26.3594 31.1484 26.25 30.8203 26.25 30.4375V29.125H15.75V30.4375C15.75 30.8203 15.6133 31.1484 15.3398 31.4219C15.1211 31.6406 14.8203 31.75 14.4375 31.75H11.8125C11.4297 31.75 11.1016 31.6406 10.8281 31.4219C10.6094 31.1484 10.5 30.8203 10.5 30.4375V29.125H0V37C0 37.7109 0.246094 38.3125 0.738281 38.8047C1.28516 39.3516 1.91406 39.625 2.625 39.625H39.375C40.0859 39.625 40.6875 39.3516 41.1797 38.8047C41.7266 38.3125 42 37.7109 42 37V29.125H31.5V30.4375Z" transform="translate(0 -2)" fill="#0086D3"/>
</svg>
