<svg width="37" height="43" viewBox="0 0 37 43" fill="none" xmlns="http://www.w3.org/2000/svg">
<path d="M35.8906 13.375H1.10938C0.835938 13.375 0.589844 13.293 0.371094 13.1289C0.207031 12.9102 0.125 12.6641 0.125 12.3906V9.4375C0.125 8.34375 0.507813 7.41406 1.27344 6.64844C2.03906 5.88281 2.96875 5.5 4.0625 5.5H8V1.23438C8 0.960938 8.08203 0.742188 8.24609 0.578125C8.46484 0.359375 8.71094 0.25 8.98438 0.25H12.2656C12.5391 0.25 12.7578 0.359375 12.9219 0.578125C13.1406 0.742188 13.25 0.960938 13.25 1.23438V5.5H23.75V1.23438C23.75 0.960938 23.832 0.742188 23.9961 0.578125C24.2148 0.359375 24.4609 0.25 24.7344 0.25H28.0156C28.2891 0.25 28.5078 0.359375 28.6719 0.578125C28.8906 0.742188 29 0.960938 29 1.23438V5.5H32.9375C34.0312 5.5 34.9609 5.88281 35.7266 6.64844C36.4922 7.41406 36.875 8.34375 36.875 9.4375V12.3906C36.875 12.6641 36.7656 12.9102 36.5469 13.1289C36.3828 13.293 36.1641 13.375 35.8906 13.375ZM1.10938 16H35.8906C36.1641 16 36.3828 16.1094 36.5469 16.3281C36.7656 16.4922 36.875 16.7109 36.875 16.9844V38.3125C36.875 39.4062 36.4922 40.3359 35.7266 41.1016C34.9609 41.8672 34.0312 42.25 32.9375 42.25H4.0625C2.96875 42.25 2.03906 41.8672 1.27344 41.1016C0.507813 40.3359 0.125 39.4062 0.125 38.3125V16.9844C0.125 16.7109 0.207031 16.4922 0.371094 16.3281C0.589844 16.1094 0.835938 16 1.10938 16ZM10.625 32.7344C10.625 32.4609 10.5156 32.2422 10.2969 32.0781C10.1328 31.8594 9.91406 31.75 9.64062 31.75H6.35938C6.08594 31.75 5.83984 31.8594 5.62109 32.0781C5.45703 32.2422 5.375 32.4609 5.375 32.7344V36.0156C5.375 36.2891 5.45703 36.5352 5.62109 36.7539C5.83984 36.918 6.08594 37 6.35938 37H9.64062C9.91406 37 10.1328 36.918 10.2969 36.7539C10.5156 36.5352 10.625 36.2891 10.625 36.0156V32.7344ZM10.625 22.2344C10.625 21.9609 10.5156 21.7422 10.2969 21.5781C10.1328 21.3594 9.91406 21.25 9.64062 21.25H6.35938C6.08594 21.25 5.83984 21.3594 5.62109 21.5781C5.45703 21.7422 5.375 21.9609 5.375 22.2344V25.5156C5.375 25.7891 5.45703 26.0352 5.62109 26.2539C5.83984 26.418 6.08594 26.5 6.35938 26.5H9.64062C9.91406 26.5 10.1328 26.418 10.2969 26.2539C10.5156 26.0352 10.625 25.7891 10.625 25.5156V22.2344ZM21.125 32.7344C21.125 32.4609 21.0156 32.2422 20.7969 32.0781C20.6328 31.8594 20.4141 31.75 20.1406 31.75H16.8594C16.5859 31.75 16.3398 31.8594 16.1211 32.0781C15.957 32.2422 15.875 32.4609 15.875 32.7344V36.0156C15.875 36.2891 15.957 36.5352 16.1211 36.7539C16.3398 36.918 16.5859 37 16.8594 37H20.1406C20.4141 37 20.6328 36.918 20.7969 36.7539C21.0156 36.5352 21.125 36.2891 21.125 36.0156V32.7344ZM21.125 22.2344C21.125 21.9609 21.0156 21.7422 20.7969 21.5781C20.6328 21.3594 20.4141 21.25 20.1406 21.25H16.8594C16.5859 21.25 16.3398 21.3594 16.1211 21.5781C15.957 21.7422 15.875 21.9609 15.875 22.2344V25.5156C15.875 25.7891 15.957 26.0352 16.1211 26.2539C16.3398 26.418 16.5859 26.5 16.8594 26.5H20.1406C20.4141 26.5 20.6328 26.418 20.7969 26.2539C21.0156 26.0352 21.125 25.7891 21.125 25.5156V22.2344ZM31.625 32.7344C31.625 32.4609 31.5156 32.2422 31.2969 32.0781C31.1328 31.8594 30.9141 31.75 30.6406 31.75H27.3594C27.0859 31.75 26.8398 31.8594 26.6211 32.0781C26.457 32.2422 26.375 32.4609 26.375 32.7344V36.0156C26.375 36.2891 26.457 36.5352 26.6211 36.7539C26.8398 36.918 27.0859 37 27.3594 37H30.6406C30.9141 37 31.1328 36.918 31.2969 36.7539C31.5156 36.5352 31.625 36.2891 31.625 36.0156V32.7344ZM31.625 22.2344C31.625 21.9609 31.5156 21.7422 31.2969 21.5781C31.1328 21.3594 30.9141 21.25 30.6406 21.25H27.3594C27.0859 21.25 26.8398 21.3594 26.6211 21.5781C26.457 21.7422 26.375 21.9609 26.375 22.2344V25.5156C26.375 25.7891 26.457 26.0352 26.6211 26.2539C26.8398 26.418 27.0859 26.5 27.3594 26.5H30.6406C30.9141 26.5 31.1328 26.418 31.2969 26.2539C31.5156 26.0352 31.625 25.7891 31.625 25.5156V22.2344Z" fill="#0086D3"/>
</svg>
