<svg width="48" height="36" viewBox="0 0 48 36" fill="none" xmlns="http://www.w3.org/2000/svg">
<path d="M46.875 15.75H41.7188L40.9688 13.7812C40.0938 11.4687 38.625 9.59375 36.5625 8.15625C34.5 6.71875 32.2188 6 29.7188 6H18.2812C15.7812 6 13.5 6.71875 11.4375 8.15625C9.375 9.59375 7.90625 11.4687 7.03125 13.7812L6.28125 15.75H1.125C0.75 15.75 0.4375 15.9063 0.1875 16.2188C0 16.5312 -0.03125 16.875 0.09375 17.25L0.84375 19.5C0.96875 20 1.3125 20.25 1.875 20.25H4.59375C3.65625 20.8125 2.90625 21.5625 2.34375 22.5C1.78125 23.375 1.5 24.375 1.5 25.5V30C1.5 31.5 2 32.8125 3 33.9375V39.75C3 40.375 3.21875 40.9062 3.65625 41.3438C4.09375 41.7812 4.625 42 5.25 42H9.75C10.375 42 10.9062 41.7812 11.3438 41.3438C11.7812 40.9062 12 40.375 12 39.75V36H36V39.75C36 40.375 36.2188 40.9062 36.6562 41.3438C37.0938 41.7812 37.625 42 38.25 42H42.75C43.375 42 43.9062 41.7812 44.3438 41.3438C44.7812 40.9062 45 40.375 45 39.75V33.9375C46 32.8125 46.5 31.5 46.5 30V25.5C46.5 24.375 46.2188 23.375 45.6562 22.5C45.0938 21.5625 44.3438 20.8125 43.4062 20.25H46.125C46.6875 20.25 47.0312 20 47.1562 19.5L47.9062 17.25C48.0312 16.875 47.9688 16.5312 47.7188 16.2188C47.5312 15.9063 47.25 15.75 46.875 15.75ZM12.6562 15.9375C13.0938 14.75 13.8125 13.8125 14.8125 13.125C15.875 12.375 17.0312 12 18.2812 12H29.7188C30.9688 12 32.0938 12.375 33.0938 13.125C34.1562 13.8125 34.9062 14.75 35.3438 15.9375L36.75 19.5H11.25L12.6562 15.9375ZM8.25 30.75C7.4375 30.75 6.71875 30.4688 6.09375 29.9062C5.53125 29.2812 5.25 28.5625 5.25 27.75C5.25 26.9375 5.53125 26.25 6.09375 25.6875C6.71875 25.0625 7.4375 24.75 8.25 24.75C9.0625 24.75 10 25.3125 11.0625 26.4375C12.1875 27.5 12.75 28.4375 12.75 29.25C12.75 29.9375 12.2812 30.375 11.3438 30.5625C10.7812 30.6875 9.875 30.75 8.625 30.75H8.25ZM39.75 30.75C39.6875 30.75 39.5625 30.75 39.375 30.75C38.125 30.75 37.2188 30.6875 36.6562 30.5625C35.7188 30.375 35.25 29.9375 35.25 29.25C35.25 28.4375 35.7812 27.5 36.8438 26.4375C37.9688 25.3125 38.9375 24.75 39.75 24.75C40.5625 24.75 41.25 25.0625 41.8125 25.6875C42.4375 26.25 42.75 26.9375 42.75 27.75C42.75 28.5625 42.4375 29.2812 41.8125 29.9062C41.25 30.4688 40.5625 30.75 39.75 30.75Z" transform="translate(0 -6)" fill="#0086D3"/>
</svg>
